<!DOCTYPE svg PUBLIC "-//W3C//DTD SVG 20010904//EN" "http://www.w3.org/TR/2001/REC-SVG-20010904/DTD/svg10.dtd">
<svg version="1.0" xmlns="http://www.w3.org/2000/svg" width="160px" height="50px" viewBox="0 0 1600 500" preserveAspectRatio="xMidYMid meet">
<g id="layer101" fill="#ffffff" stroke="none">
 <path d="M64 379 c-3 -6 -1 -16 5 -22 21 -21 11 -69 -30 -148 -22 -43 -38 -83 -34 -89 11 -17 95 -12 102 6 3 9 1 19 -4 23 -6 4 -4 20 7 43 l16 38 18 -36 c12 -27 14 -39 5 -50 -17 -20 -2 -34 37 -34 35 0 62 29 35 38 -6 2 -25 30 -41 63 -31 60 -40 134 -18 141 6 2 9 12 5 21 -5 12 -18 17 -51 17 -25 0 -48 -5 -52 -11z"/>
 <path d="M241 360 c-48 -49 -54 -143 -13 -200 88 -121 260 -22 227 131 -4 17 -20 46 -37 65 -28 31 -35 34 -88 34 -52 0 -62 -3 -89 -30z m113 -15 c30 -31 34 -146 6 -180 -21 -25 -59 -18 -71 13 -17 43 -7 152 16 168 24 18 30 18 49 -1z"/>
 <path d="M455 379 c-4 -5 0 -18 9 -28 19 -21 23 -180 5 -198 -21 -21 -2 -45 33 -41 28 3 38 13 85 88 l53 84 0 -61 c0 -42 -5 -64 -15 -73 -12 -10 -13 -16 -4 -26 14 -17 61 -18 76 -3 8 8 13 8 17 0 4 -6 27 -11 52 -11 33 0 46 5 51 17 4 9 1 19 -5 21 -7 2 -12 20 -12 40 l1 37 28 -35 c19 -22 25 -37 19 -41 -24 -15 1 -39 42 -39 57 0 60 20 10 67 l-42 39 31 62 c29 58 60 89 75 75 10 -10 7 -191 -4 -198 -6 -3 -10 -13 -10 -21 0 -12 17 -14 98 -12 l97 3 3 33 c2 24 -1 32 -13 32 -8 0 -18 -7 -21 -15 -4 -9 -19 -15 -40 -15 -32 0 -34 2 -34 35 0 38 13 44 41 19 25 -22 39 -9 39 36 0 39 -25 64 -36 35 -4 -8 -15 -15 -25 -15 -15 0 -19 7 -19 35 0 33 2 35 33 35 21 0 41 -8 52 -20 10 -11 22 -17 27 -14 13 8 1 66 -15 76 -20 13 -162 9 -175 -4 -9 -9 -12 -9 -12 0 0 8 -17 12 -45 12 -44 0 -45 0 -74 -57 l-30 -58 -1 37 c0 20 5 38 12 40 6 2 9 12 5 21 -5 13 -19 17 -56 17 -53 0 -74 -16 -48 -35 22 -16 25 -186 3 -204 -25 -21 -35 12 -38 125 l-3 109 -30 3 c-28 2 -34 -4 -75 -73 l-45 -76 -3 53 c-2 31 1 54 7 56 6 2 11 12 11 23 0 15 -7 19 -39 19 -22 0 -43 -5 -46 -11z"/>
 <path d="M1164 378 c-4 -6 0 -16 9 -23 25 -18 25 -190 1 -203 -35 -19 -2 -32 80 -32 67 0 88 4 107 18 29 24 30 75 2 104 -20 20 -20 21 -2 39 11 11 19 27 19 38 0 10 7 24 15 31 28 23 18 40 -23 40 -45 0 -66 -19 -79 -69 -12 -48 -33 -52 -33 -8 0 20 5 37 12 39 6 2 9 12 5 21 -5 13 -19 17 -56 17 -27 0 -53 -5 -57 -12z m141 -183 c0 -23 -5 -31 -22 -33 -20 -3 -23 1 -23 33 0 32 3 36 23 33 17 -2 22 -10 22 -33z"/>
 <path d="M1425 365 c-30 -29 -32 -56 -6 -79 27 -25 61 -6 61 33 0 34 27 49 48 27 22 -22 8 -42 -47 -71 -28 -14 -55 -34 -61 -44 -29 -54 6 -119 67 -124 29 -2 30 -3 15 -25 -22 -33 -3 -72 36 -72 15 0 33 5 40 12 17 17 15 65 -4 76 -15 8 -15 11 5 31 11 11 21 27 21 35 0 21 -30 48 -47 42 -8 -3 -17 -6 -19 -6 -2 0 -4 -11 -4 -24 0 -26 -19 -39 -39 -26 -24 14 -6 45 42 70 58 31 67 43 67 97 0 54 -25 73 -98 73 -43 0 -58 -5 -77 -25z"/>
 </g>

</svg>